<svg xmlns="http://www.w3.org/2000/svg" viewBox="0 0 108 108" width="108" height="108">
  <!-- Adaptive Icon Foreground: 108dp, safe zone is inner 72dp (18dp padding each side) -->
  <!-- Content centered in safe zone: x=18..90, y=18..90 -->

  <!-- モーショントレイル -->
  <polygon points="54,22 27.4,88 37.9,88 54,41.2 70.1,88 80.6,88" fill="rgb(217,119,6)" opacity="0.12" transform="translate(-5, 0)"/>
  <polygon points="54,22 27.4,88 37.9,88 54,41.2 70.1,88 80.6,88" fill="rgb(217,119,6)" opacity="0.25" transform="translate(-2.5, 0)"/>

  <!-- メインの "A" - 左脚 -->
  <polygon points="54,22 27.4,88 37.9,88 54,41.2" fill="rgb(217,119,6)"/>
  <!-- メインの "A" - 右脚 -->
  <polygon points="54,22 70.1,88 80.6,88 54,41.2" fill="rgb(217,119,6)"/>

  <!-- パルスライン -->
  <polyline
    points="8,67 21,67 44,67 48,57.5 52,73 55.8,54.5 59.2,71 62.5,62.5 78,67 100,67"
    fill="none"
    stroke="#FFFFFF"
    stroke-width="3.8"
    stroke-linecap="round"
    stroke-linejoin="round"
  />
  <polyline
    points="8,67 21,67 44,67 48,57.5 52,73 55.8,54.5 59.2,71 62.5,62.5 78,67 100,67"
    fill="none"
    stroke="rgb(217,119,6)"
    stroke-width="1.7"
    stroke-linecap="round"
    stroke-linejoin="round"
  />

  <!-- パルスのグロウ -->
  <polyline
    points="8,67 21,67 44,67 48,57.5 52,73 55.8,54.5 59.2,71 62.5,62.5 78,67 100,67"
    fill="none"
    stroke="rgb(217,119,6)"
    stroke-width="3.4"
    stroke-linecap="round"
    stroke-linejoin="round"
    opacity="0.2"
  />

  <!-- ピークポイント -->
  <circle cx="55.8" cy="54.5" r="1.1" fill="rgb(217,119,6)"/>
  <circle cx="55.8" cy="54.5" r="2.1" fill="rgb(217,119,6)" opacity="0.3"/>
</svg>